<svg width="393" height="295" viewBox="0 0 393 295" fill="none" xmlns="http://www.w3.org/2000/svg">
<path opacity="0.3" d="M-11 -69C-11 -72.866 -7.86599 -76 -4 -76H438C441.866 -76 445 -72.866 445 -69V172.08C445 175.254 440.541 175.958 439.563 172.939C415.817 99.6346 326.965 71.5042 265.359 117.786L199.652 167.149C139.639 207.31 64.1384 216.636 -3.84327 192.286L-10.5854 189.871C-10.8341 189.782 -11 189.546 -11 189.282V-69Z" fill="#000409"/>
<path opacity="0.3" d="M-11 -5.00001C-11 -8.866 -7.86599 -12 -4 -12H438C441.866 -12 445 -8.86599 445 -5V236.08C445 239.254 440.541 239.958 439.563 236.939C415.817 163.635 326.965 135.504 265.359 181.786L199.652 231.149C139.639 271.31 64.1384 280.636 -3.84327 256.286L-10.5854 253.871C-10.8341 253.782 -11 253.546 -11 253.282V-5.00001Z" fill="#000409"/>
</svg>
